inDegrees=no
num_controls=7
num_derivatives=13
num_iterations=96
num_multipliers=7
num_parameters=0
num_slacks=7
num_states=26
objective=4.909622
objective_accelerations=0.698493
objective_balance=0.024650
objective_effort=0.674900
objective_height=3.430911
objective_ligament=0.080668
solver_duration=985.776855
status=Solve_Succeeded
success=true
DataType=double
version=3
OpenSimVersion=4.4-2022-07-23-0e9fedc
endheader
time	/jointset/ground_pelvis/pelvis_tilt/value	/jointset/ground_pelvis/pelvis_tx/value	/jointset/ground_pelvis/pelvis_ty/value	/jointset/hip_l/hip_flexion_l/value	/jointset/hip_l/hip_adduction_l/value	/jointset/hip_l/hip_rotation_l/value	/jointset/back/lumbar_extension/value	/jointset/patellofemoral_l/patellar_flexion_l/value	/jointset/knee_l/knee_flexion_l/value	/jointset/knee_l/knee_adduction_l/value	/jointset/knee_l/knee_rotation_l/value	/jointset/ankle_l/ankle_angle_l/value	/jointset/subtalar_l/subtalar_angle_l/value	/jointset/ground_pelvis/pelvis_tilt/speed	/jointset/ground_pelvis/pelvis_tx/speed	/jointset/ground_pelvis/pelvis_ty/speed	/jointset/hip_l/hip_flexion_l/speed	/jointset/hip_l/hip_adduction_l/speed	/jointset/hip_l/hip_rotation_l/speed	/jointset/back/lumbar_extension/speed	/jointset/patellofemoral_l/patellar_flexion_l/speed	/jointset/knee_l/knee_flexion_l/speed	/jointset/knee_l/knee_adduction_l/speed	/jointset/knee_l/knee_rotation_l/speed	/jointset/ankle_l/ankle_angle_l/speed	/jointset/subtalar_l/subtalar_angle_l/speed	/forceset/tau_hip_flexion_l	/forceset/tau_hip_adduction_l	/forceset/tau_hip_rotation_l	/forceset/tau_knee_flexion_l	/forceset/tau_ankle_angle_l	/forceset/tau_subtalar_angle_l	/forceset/tau_lumbar_extension	lambda_cid13_p0	lambda_cid13_p1	lambda_cid13_p2	lambda_cid13_p3	lambda_cid13_p4	lambda_cid13_p5	lambda_cid14_p0	/jointset/ground_pelvis/pelvis_tilt/accel	/jointset/ground_pelvis/pelvis_tx/accel	/jointset/ground_pelvis/pelvis_ty/accel	/jointset/hip_l/hip_flexion_l/accel	/jointset/hip_l/hip_adduction_l/accel	/jointset/hip_l/hip_rotation_l/accel	/jointset/back/lumbar_extension/accel	/jointset/patellofemoral_l/patellar_flexion_l/accel	/jointset/knee_l/knee_flexion_l/accel	/jointset/knee_l/knee_adduction_l/accel	/jointset/knee_l/knee_rotation_l/accel	/jointset/ankle_l/ankle_angle_l/accel	/jointset/subtalar_l/subtalar_angle_l/accel	gamma_cid13_p0	gamma_cid13_p1	gamma_cid13_p2	gamma_cid13_p3	gamma_cid13_p4	gamma_cid13_p5	gamma_cid14_p0
0	-0.03542675515141238	0.05606918389723663	0.9203662451810296	0.3085811930696054	-0.2952435735552031	-0.2928538294905573	-0.3879500408040475	0.2499276582270763	0.249927658227084	-0.1745323457421351	-0.1659449414687732	-0.0008036543073733089	0.0007365065547793524	0	0	0	0	0	0	0	0	0	0	0	0	0	0.1025669163317146	-0.02362051843465721	-0.01481336713897285	-0.2101585066599997	0.1068508047514314	-0.03170842632333464	-0.04691449658394347	-7.605279669710874	12.07644589402184	1.076971385723839	52.72180984823267	-570.8715817270362	-52.03292495028145	-22.90977773212745	-2.173475226242781	-3.798957227193563	-1.619197169800284	16.99380661226249	-0.8126557273431578	4.850212641586214	-10.5833148101121	16.18280413081091	16.18280413081552	3.420500695438851	-0.7065154700430519	2.479216887574488	-0.04478321795417245	8.822241731083017e-08	3.587680037347158e-07	1.872558908465405e-07	-1.437308634878762e-07	7.897045443800407e-07	-3.076514748032624e-08	7.58084488023044e-09
0.01	-0.03552832342081026	0.05588441687088636	0.9202875008219946	0.3094064085217916	-0.2952837350820371	-0.2926119062665207	-0.388469736387328	0.2507200253455016	0.250720025345448	-0.1743660222329185	-0.1659753487148751	-0.00067976675896734	0.0007347365041697959	-0.02017300236865091	-0.03645856661552286	-0.01564565046740309	0.1636959535579919	-0.007868184352037995	0.04804624431545969	-0.1023566072291588	0.157481322285608	0.1574813222855801	0.03325906154830884	-0.00599236123624224	0.02499782249663131	-0.0001042434926091013	0.08898861201352341	-0.03427603539864382	-0.01368558228223693	-0.2035490890168274	0.1016138500220588	-0.01520941164107339	-0.03250171779893636	-8.934188270325913	5.25638921326062	2.035451811594369	47.93412173889972	-578.7097499468922	-65.01648283586607	-22.91975206075962	-1.918145379535086	-3.495109326537877	-1.521607843363289	15.85540500917654	-0.7493841010080234	4.731061590840713	-9.82445726436257	15.38197955168777	15.38197955168106	3.277847295492879	-0.5322142847331288	2.543132498679765	0.04413881333598673	9.28058452539916e-09	4.046757038115727e-07	2.64518935980953e-07	-9.542636350261833e-09	3.106010888205934e-07	-9.353583346123485e-08	1.47507127318975e-08
0.02	-0.03582740824141254	0.05534990358882032	0.9200554281866529	0.3118281665659133	-0.2953976753147768	-0.2918996743464928	-0.3899655227599268	0.253057442341605	0.2530574423416064	-0.1738672604260057	-0.1660630031402464	-0.0002992874720050712	0.000739400764284212	-0.03950331023158005	-0.06994925114315168	-0.03066565526135996	0.319308518380345	-0.0147557411790987	0.09406173920351658	-0.1952181578600843	0.3090099755412838	0.3090099755412082	0.06648765953526427	-0.01144943584520594	0.05131834771215047	0.001286862144790734	0.07541030769589267	-0.0449315523624297	-0.01255779742518837	-0.1969396713733948	0.09637689529282598	0.001289603041438159	-0.01808893901365173	-10.13396729127717	-1.58293560466879	2.993182686683005	43.00218640697965	-584.5799638566316	-77.8458503207054	-22.94867340174753	-2.00493632509833	-3.205380809614686	-1.494068035111047	15.37712886513454	-0.6165302223479053	4.444062756105708	-8.684303490465133	14.99227032482443	14.99227032482508	3.414407983167755	-0.5994581445873693	2.743757431352082	0.2542866080474086	-6.966124826003185e-08	4.505834038884295e-07	3.417819811153655e-07	1.246455907873525e-07	-1.685023667388539e-07	-1.563065194421435e-07	2.192058058356457e-08
0.03	-0.03631677222271519	0.05449227215326907	0.9196748728395596	0.3157729201462358	-0.2955766785693613	-0.2907366565318854	-0.3923528426653763	0.256883894888409	0.2568838948882892	-0.1730381506547447	-0.1662030936174886	0.0003478613284954679	0.0007632163200334269	-0.05827312201571309	-0.1013848659873907	-0.04546765993748096	0.4688937282470742	-0.02102268137039065	0.1383202753208881	-0.281785219979147	0.4555819849121215	0.4555819849120559	0.09906708041174798	-0.01649864515810847	0.07799716232100065	0.003461362033390487	0.07090891155172367	-0.03967793063994628	-0.01231751864453418	-0.1962200661273827	0.09924525424590594	-0.002498518188779305	-0.01369508989533764	-9.273128428564075	-0.1072500466339292	2.779358511714245	41.18400297435551	-584.294762121062	-73.90026346683311	-22.99459905201881	-1.798553350768567	-3.083800853227029	-1.476639187121332	14.63693671054524	-0.6285645086235758	4.383486733169141	-8.573817084328148	14.38487949601896	14.38487949602051	3.139740253694972	-0.4471064934805901	2.612816720039226	0.1966877457182642	-1.122742931947516e-07	2.480127884470833e-07	5.077521312528098e-07	1.393824122590064e-07	-3.230323929265949e-07	-3.140628438220295e-07	-1.531644899330419e-08
0.04	-0.03699094427104356	0.05332605476299673	0.9191456229450522	0.3211910697578335	-0.2958177089440787	-0.2891377058173873	-0.395592015094374	0.2621551101793415	0.2621551101793437	-0.1718912404519786	-0.1663915670218281	0.001258372923960953	0.0008083080879589832	-0.07646492362763878	-0.1316664420873678	-0.06040456474420813	0.6139877246379845	-0.02716116520587243	0.1812483191828949	-0.3655886625662398	0.5979625243951676	0.5979625243951088	0.1300477458404734	-0.02112602122454238	0.1039909067053499	0.005542104580061749	0.06640751540768118	-0.03442430891735591	-0.01207723986266887	-0.1955004608814767	0.1021136131990164	-0.006286639418892864	-0.009301240776990604	-8.29869166107204	1.355305436629233	2.559902110343023	39.22478650089457	-582.295201919294	-69.80321868467408	-23.05534442416007	-1.889334290656807	-2.97457306076217	-1.521048061232276	14.47888616997059	-0.5908389511859932	4.177964305032759	-8.131579584070943	14.15397634726607	14.15397634726608	3.094656893615826	-0.5150914952936518	2.606743386451998	0.2355351396616134	-1.541382909572918e-07	4.031890876824813e-08	6.755512938645434e-07	1.516563181499188e-07	-4.708701834571874e-07	-4.737776349730285e-07	-5.346908470272009e-08
0.05	-0.03784450871459018	0.05186388572923414	0.9184660370293443	0.3280365046980717	-0.2961186236975195	-0.2871185307101701	-0.3996505186161807	0.2688284279395643	0.2688284279396726	-0.1704413002162883	-0.1666255674335495	0.002426341539536273	0.0008749787843810848	-0.09411811885549905	-0.1604660175806451	-0.07555103951057715	0.7541400362113352	-0.03292679373827489	0.2222933188407659	-0.4452459345071519	0.7358934473117694	0.7358934473116829	0.1597497685449687	-0.025576135849445	0.12958339538233	0.007886063205357122	0.05711688241329747	-0.03367066390498193	-0.01123745617900799	-0.1913355592719562	0.09991931083701154	-0.003086255126757835	-0.0006570214131982314	-8.726391035823605	0.05541579128340911	2.749835225346141	36.83298837834644	-581.7202305519934	-70.99963645224466	-23.12818336686313	-1.683834110485333	-2.787417300005333	-1.51730571998261	13.63950955690341	-0.5552817486941029	4.023657197171629	-7.752884905440667	13.49152421328953	13.49152421328606	2.8794707347735	-0.3951660575630634	2.532589432604865	0.2478467143560804	-1.71139691625996e-07	7.853213189914448e-09	6.802398372421104e-07	1.788706340142787e-07	-5.683487924478968e-07	-4.834161051903704e-07	-5.516393121342351e-08
